# This file uses centimeters as units for non-parametric coordinates.

mtllib platformer.mtl
g default
v -90.522888 0.000000 90.522888
v 90.522888 0.000000 90.522888
v -90.522888 0.000000 -90.522888
v 90.522888 0.000000 -90.522888
v -103.149849 11.826941 103.149849
v 103.149849 11.826941 103.149849
v -103.149849 11.826941 -103.149849
v 103.149849 11.826941 -103.149849
v -106.415047 12.612462 106.415047
v 106.415047 12.612462 106.415047
v -106.415047 12.612462 -106.415047
v 106.415047 12.612462 -106.415047
v -116.863815 12.612462 116.863815
v 116.863815 12.612462 116.863815
v -116.863815 12.612462 -116.863815
v 116.863815 12.612462 -116.863815
v -120.585648 10.192415 120.585648
v 120.585648 10.192415 120.585648
v -120.585648 10.192415 -120.585648
v 120.585648 10.192415 -120.585648
v -120.585648 -14.931851 120.585648
v 120.585648 -14.931851 120.585648
v -120.585648 -14.931851 -120.585648
v 120.585648 -14.931851 -120.585648
vt 0.465790 0.435138
vt 0.465790 0.070189
vt 0.500664 0.044736
vt 0.500664 0.460591
vt 0.929811 0.502268
vt 0.564862 0.502268
vt 0.539409 0.467393
vt 0.955264 0.467393
vt 0.560747 0.549330
vt 0.925696 0.549330
vt 0.951149 0.584204
vt 0.535294 0.584204
vt 0.414712 0.068132
vt 0.414712 0.433080
vt 0.379837 0.458533
vt 0.379837 0.042678
vt 0.952924 0.047011
vt 0.952924 0.411959
vt 0.587975 0.411959
vt 0.587975 0.047011
vt 0.536941 0.626073
vt 0.952796 0.626073
vt 0.959377 0.632842
vt 0.530360 0.632842
vt 0.952796 0.733424
vt 0.536942 0.733424
vt 0.530360 0.726654
vt 0.959377 0.726654
vt 0.239571 0.045147
vt 0.239571 0.461001
vt 0.232801 0.467583
vt 0.232802 0.038565
vt 0.289821 0.458943
vt 0.289821 0.043089
vt 0.296591 0.036507
vt 0.296591 0.465525
vt 0.509297 0.705591
vt 0.980440 0.705591
vt 0.317653 0.015444
vt 0.317653 0.486588
vt 0.211739 0.488646
vt 0.211739 0.017502
vt 0.980440 0.653905
vt 0.509297 0.653905
vt 0.202790 0.496148
vt 0.202790 0.010000
vt 0.501795 0.696643
vt 0.987942 0.696643
vt 0.326602 0.007942
vt 0.326602 0.494090
vt 0.987942 0.662853
vt 0.501795 0.662854
vt 0.990956 0.839825
vt 0.504808 0.839825
vt 0.504808 0.789180
vt 0.990956 0.789180
vt 0.990000 0.944732
vt 0.503852 0.944732
vt 0.503852 0.894087
vt 0.990000 0.894087
vt 0.016173 0.496148
vt 0.016173 0.010000
vt 0.066818 0.010000
vt 0.066818 0.496148
vt 0.101895 0.496148
vt 0.101895 0.010000
vt 0.152540 0.010000
vt 0.152540 0.496148
vt 0.496148 0.990000
vt 0.010000 0.990000
vt 0.010000 0.503852
vt 0.496148 0.503852
vn 0.683608 0.729850 0.000000
vn 0.683608 0.729850 0.000000
vn 0.683608 0.729850 0.000000
vn 0.683608 0.729850 0.000000
vn 0.000000 0.729850 -0.683608
vn 0.000000 0.729850 -0.683608
vn 0.000000 0.729850 -0.683608
vn 0.000000 0.729850 -0.683608
vn 0.000000 0.729850 0.683608
vn 0.000000 0.729850 0.683608
vn 0.000000 0.729850 0.683608
vn 0.000000 0.729850 0.683608
vn -0.683608 0.729850 0.000000
vn -0.683608 0.729850 0.000000
vn -0.683608 0.729850 0.000000
vn -0.683608 0.729850 0.000000
vn 0.000000 1.000000 0.000000
vn 0.000000 1.000000 0.000000
vn 0.000000 1.000000 0.000000
vn 0.000000 1.000000 0.000000
vn 0.233901 0.972260 0.000000
vn 0.233901 0.972260 0.000000
vn 0.233901 0.972260 0.000000
vn 0.233901 0.972260 0.000000
vn 0.000000 0.972260 -0.233901
vn 0.000000 0.972260 -0.233901
vn 0.000000 0.972260 -0.233901
vn 0.000000 0.972260 -0.233901
vn -0.233901 0.972260 0.000000
vn -0.233901 0.972260 0.000000
vn -0.233901 0.972260 0.000000
vn -0.233901 0.972260 0.000000
vn 0.000000 0.972260 0.233901
vn 0.000000 0.972260 0.233901
vn 0.000000 0.972260 0.233901
vn 0.000000 0.972260 0.233901
vn 0.000000 1.000000 0.000000
vn 0.000000 1.000000 0.000000
vn 0.000000 1.000000 0.000000
vn 0.000000 1.000000 0.000000
vn 0.000000 1.000000 0.000000
vn 0.000000 1.000000 0.000000
vn 0.000000 1.000000 0.000000
vn 0.000000 1.000000 0.000000
vn 0.000000 1.000000 0.000000
vn 0.000000 1.000000 0.000000
vn 0.000000 1.000000 0.000000
vn 0.000000 1.000000 0.000000
vn 0.000000 1.000000 0.000000
vn 0.000000 1.000000 0.000000
vn 0.000000 1.000000 0.000000
vn 0.000000 1.000000 0.000000
vn 0.545124 0.838355 0.000000
vn 0.545124 0.838355 0.000000
vn 0.545124 0.838356 0.000000
vn 0.545124 0.838356 0.000000
vn 0.000000 0.838355 0.545124
vn 0.000000 0.838355 0.545124
vn 0.000000 0.838356 0.545124
vn 0.000000 0.838356 0.545124
vn 0.000000 0.838355 -0.545124
vn 0.000000 0.838355 -0.545124
vn 0.000000 0.838356 -0.545124
vn 0.000000 0.838356 -0.545124
vn -0.545124 0.838355 0.000000
vn -0.545124 0.838355 0.000000
vn -0.545124 0.838356 0.000000
vn -0.545124 0.838356 0.000000
vn 0.000000 0.000000 1.000000
vn 0.000000 0.000000 1.000000
vn 0.000000 0.000000 1.000000
vn 0.000000 0.000000 1.000000
vn 1.000000 0.000000 0.000000
vn 1.000000 0.000000 0.000000
vn 1.000000 0.000000 0.000000
vn 1.000000 0.000000 0.000000
vn 0.000000 0.000000 -1.000000
vn 0.000000 0.000000 -1.000000
vn 0.000000 0.000000 -1.000000
vn 0.000000 0.000000 -1.000000
vn -1.000000 0.000000 0.000000
vn -1.000000 0.000000 0.000000
vn -1.000000 0.000000 0.000000
vn -1.000000 0.000000 0.000000
vn 0.000000 -1.000000 0.000000
vn 0.000000 -1.000000 0.000000
vn 0.000000 -1.000000 0.000000
vn 0.000000 -1.000000 0.000000
s off
g Platform
usemtl platformer:initialShadingGroup
f 1/1/1 3/2/2 7/3/3 5/4/4
f 2/5/5 1/6/6 5/7/7 6/8/8
f 3/9/9 4/10/10 8/11/11 7/12/12
f 4/13/13 2/14/14 6/15/15 8/16/16
f 2/17/17 4/18/18 3/19/19 1/20/20
f 5/21/21 7/22/22 11/23/23 9/24/24
f 6/25/25 5/26/26 9/27/27 10/28/28
f 8/29/29 6/30/30 10/31/31 12/32/32
f 7/33/33 8/34/34 12/35/35 11/36/36
f 10/28/37 9/27/38 13/37/39 14/38/40
f 11/36/41 12/35/42 16/39/43 15/40/44
f 12/32/45 10/31/46 14/41/47 16/42/48
f 9/24/49 11/23/50 15/43/51 13/44/52
f 16/42/53 14/41/54 18/45/55 20/46/56
f 14/38/57 13/37/58 17/47/59 18/48/60
f 15/40/61 16/39/62 20/49/63 19/50/64
f 13/44/65 15/43/66 19/51/67 17/52/68
f 18/53/69 17/54/70 21/55/71 22/56/72
f 20/57/73 18/58/74 22/59/75 24/60/76
f 19/61/77 20/62/78 24/63/79 23/64/80
f 17/65/81 19/66/82 23/67/83 21/68/84
f 22/69/85 21/70/86 23/71/87 24/72/88
